<svg height="198.397838" viewBox="0 0 376.46399 147.75721" width="504.037751" xmlns="http://www.w3.org/2000/svg"><g fill-rule="evenodd" transform="translate(-13.935 -12.526779)"><path d="m32.52 12.66c-.064.064-.116 17.646-.116 39.072 0 36.316-.02 38.986-.295 39.388-.162.237-3.665 4.938-7.785 10.448-4.119 5.51-8.142 10.899-8.939 11.976l-1.45 1.958.044 10.312.045 10.313 7.737-10.355c4.255-5.694 8.331-11.15 9.057-12.124.727-.974 1.381-1.733 1.454-1.688s.132 5.408.132 11.919v11.837l15.375-.044 15.374-.045v-6.097-6.098l-9.19-.045-9.189-.045v-49.128-49.127l2.656.006 2.657.005 9.746 16.24c27.836 46.384 32.562 54.238 32.761 54.451.228.245.188.296 9.485-12.078 1.944-2.587 3.682-4.859 3.863-5.048.324-.337.33.084.33 22.169v22.513h-5.73-5.73l-5.104-8.493c-4.886-8.13-15.531-25.862-22.905-38.154-1.912-3.186-4.823-8.038-6.469-10.781-1.647-2.743-3.077-5.072-3.18-5.174-.131-.131-.185 3.291-.185 11.722v11.908l1.277 2.108c.702 1.159 4.205 7.008 7.783 12.996 3.579 5.989 8.833 14.77 11.677 19.513 2.843 4.743 5.301 8.858 5.461 9.146.16.287 1.033 1.738 1.938 3.223.906 1.485 1.846 3.073 2.09 3.529l.442.828 15.459-.044 15.458-.045.044-36.925.044-36.925 10.714-14.248 10.714-14.247v-10.123c0-6.283-.063-10.1-.165-10.064-.152.054-4.195 5.385-16.445 21.685-2.603 3.463-4.754 6.276-4.781 6.251-.028-.024-.046-6.317-.041-13.983s-.04-14.066-.1-14.221c-.099-.259-1.448-.283-15.417-.283h-15.309l-.096.392c-.053.215-.074 3.018-.047 6.228l.049 5.836 9.277.045 9.277.045v16.249 16.248l-3.412 4.525c-1.876 2.489-4.636 6.152-6.134 8.141-1.497 1.988-2.764 3.613-2.816 3.611s-2.246-3.588-4.875-7.97c-2.63-4.382-9.283-15.454-14.785-24.605-5.502-9.15-11.574-19.264-13.494-22.474s-3.611-5.934-3.759-6.054c-.291-.235-24.243-.335-24.477-.101m175.403 56.469c-2.499.864-3.617 3.875-2.684 7.234 1.089 3.921 9 3.861 10.17-.079 1.539-5.184-2.373-8.923-7.486-7.155m26.92.211c-5.605.965-7.608 3.955-7.79 11.627l-.088 3.702h-2.685-2.684l.047 3.528.047 3.528 2.657.048 2.656.048v14.804 14.804h4.529 4.529l.044-14.765.045-14.765 3.789-.047 3.789-.047v-3.565-3.564l-3.789-.047-3.789-.047v-4.007-4.007l3.789-.047 3.789-.047v-3.655-3.655l-4.05.02c-2.228.012-4.404.082-4.835.156m-79.268 27.437v24.652h4.442 4.443v-17.683c0-9.726.062-17.683.138-17.683s1.187 2.136 2.469 4.747c2.615 5.325 2.459 5.04 6.717 12.326 1.707 2.922 3.354 5.745 3.659 6.272s1.52 2.604 2.701 4.616c1.18 2.013 2.622 4.498 3.204 5.524l1.06 1.866 5.183.007 5.183.008v-24.652-24.652h-4.443-4.442v17.718c0 10.983-.062 17.655-.163 17.552-.09-.091-1.296-2.439-2.68-5.217-1.384-2.779-3.754-7.169-5.265-9.756-1.512-2.588-3.031-5.19-3.375-5.784s-2.389-4.101-4.545-7.795l-3.92-6.715-5.183-.002-5.183-.001zm97.356-18.336c-.085 5.598-.388 6.026-4.372 6.191l-2.05.085.047 3.504.047 3.504 2.647.048 2.648.048.066 11.276c.071 12.1.058 11.919 1.017 13.929 1.632 3.419 4.051 4.395 10.913 4.4l4.224.003v-3.568-3.568l-3.527-.047-3.528-.047v-11.15-11.15l3.745-.087 3.746-.087.047-3.525.047-3.524-3.792-.047-3.793-.047-.047-5.009-.046-5.009h-3.99-3.989zm-47.182 24.608v18.38h4.617 4.617v-18.38-18.38h-4.617-4.617zm66.203-18.252c0 .073.672 2.093 1.494 4.489.822 2.395 1.719 5.021 1.993 5.836.527 1.564 1.18 3.48 4.872 14.286 1.261 3.689 2.842 8.333 3.515 10.321l1.222 3.613-.843 2.571-.843 2.571-3.357.048-3.357.047.047 3.524.047 3.524 4.181-.012c7.831-.022 9.824-1.469 12.343-8.96.914-2.717 2.003-5.909 5.084-14.895 1.216-3.546 2.39-6.995 2.61-7.666.448-1.369 4.775-14.075 5.84-17.152.38-1.097.691-2.057.691-2.134 0-.076-1.904-.139-4.232-.139h-4.233l-3.245 9.887c-1.785 5.437-3.48 10.749-3.768 11.803-.287 1.054-.808 2.975-1.158 4.268-.349 1.294-.669 2.457-.71 2.584-.222.684-.6-.341-1.663-4.511-1.055-4.139-1.956-7.009-6.665-21.244l-.894-2.7-4.486-.046c-2.467-.026-4.486.013-4.485.087m-239.469 63.506c-.046.12-.063 2.844-.038 6.054l.046 5.835 4.661.046 4.66.046v-6.1-6.1h-4.622c-3.551 0-4.642.05-4.707.219" fill="#382a7f"/><path d="m32.52 12.66c-.064.064-.116 17.646-.116 39.072 0 36.316-.02 38.986-.295 39.388-.162.237-3.665 4.938-7.785 10.448-4.119 5.51-8.142 10.899-8.939 11.976l-1.45 1.958.044 10.312.045 10.313 7.737-10.355c4.255-5.694 8.331-11.15 9.057-12.124.727-.974 1.381-1.733 1.454-1.688s.132 5.408.132 11.919v11.837l15.375-.044 15.374-.045v-6.097-6.098l-9.19-.045-9.189-.045v-49.128-49.127l2.656.006 2.657.005 9.746 16.24c27.836 46.384 32.562 54.238 32.761 54.451.228.245.188.296 9.485-12.078 1.944-2.587 3.682-4.859 3.863-5.048.324-.337.33.084.33 22.169v22.513h-5.73-5.73l-5.104-8.493c-4.886-8.13-15.531-25.862-22.905-38.154-1.912-3.186-4.823-8.038-6.469-10.781-1.647-2.743-3.077-5.072-3.18-5.174-.131-.131-.185 3.291-.185 11.722v11.908l1.277 2.108c.702 1.159 4.205 7.008 7.783 12.996 3.579 5.989 8.833 14.77 11.677 19.513 2.843 4.743 5.301 8.858 5.461 9.146.16.287 1.033 1.738 1.938 3.223.906 1.485 1.846 3.073 2.09 3.529l.442.828 15.459-.044 15.458-.045.044-36.925.044-36.925 10.714-14.248 10.714-14.247v-10.123c0-6.283-.063-10.1-.165-10.064-.152.054-4.195 5.385-16.445 21.685-2.603 3.463-4.754 6.276-4.781 6.251-.028-.024-.046-6.317-.041-13.983s-.04-14.066-.1-14.221c-.099-.259-1.448-.283-15.417-.283h-15.309l-.096.392c-.053.215-.074 3.018-.047 6.228l.049 5.836 9.277.045 9.277.045v16.249 16.248l-3.412 4.525c-1.876 2.489-4.636 6.152-6.134 8.141-1.497 1.988-2.764 3.613-2.816 3.611s-2.246-3.588-4.875-7.97c-2.63-4.382-9.283-15.454-14.785-24.605-5.502-9.15-11.574-19.264-13.494-22.474s-3.611-5.934-3.759-6.054c-.291-.235-24.243-.335-24.477-.101m175.403 56.469c-2.499.864-3.617 3.875-2.684 7.234 1.089 3.921 9 3.861 10.17-.079 1.539-5.184-2.373-8.923-7.486-7.155m26.92.211c-5.605.965-7.608 3.955-7.79 11.627l-.088 3.702h-2.685-2.684l.047 3.528.047 3.528 2.657.048 2.656.048v14.804 14.804h4.529 4.529l.044-14.765.045-14.765 3.789-.047 3.789-.047v-3.565-3.564l-3.789-.047-3.789-.047v-4.007-4.007l3.789-.047 3.789-.047v-3.655-3.655l-4.05.02c-2.228.012-4.404.082-4.835.156m-79.268 27.437v24.652h4.442 4.443v-17.683c0-9.726.062-17.683.138-17.683s1.187 2.136 2.469 4.747c2.615 5.325 2.459 5.04 6.717 12.326 1.707 2.922 3.354 5.745 3.659 6.272s1.52 2.604 2.701 4.616c1.18 2.013 2.622 4.498 3.204 5.524l1.06 1.866 5.183.007 5.183.008v-24.652-24.652h-4.443-4.442v17.718c0 10.983-.062 17.655-.163 17.552-.09-.091-1.296-2.439-2.68-5.217-1.384-2.779-3.754-7.169-5.265-9.756-1.512-2.588-3.031-5.19-3.375-5.784s-2.389-4.101-4.545-7.795l-3.92-6.715-5.183-.002-5.183-.001zm97.356-18.336c-.085 5.598-.388 6.026-4.372 6.191l-2.05.085.047 3.504.047 3.504 2.647.048 2.648.048.066 11.276c.071 12.1.058 11.919 1.017 13.929 1.632 3.419 4.051 4.395 10.913 4.4l4.224.003v-3.568-3.568l-3.527-.047-3.528-.047v-11.15-11.15l3.745-.087 3.746-.087.047-3.525.047-3.524-3.792-.047-3.793-.047-.047-5.009-.046-5.009h-3.99-3.989zm-47.182 24.608v18.38h4.617 4.617v-18.38-18.38h-4.617-4.617zm66.203-18.252c0 .073.672 2.093 1.494 4.489.822 2.395 1.719 5.021 1.993 5.836.527 1.564 1.18 3.48 4.872 14.286 1.261 3.689 2.842 8.333 3.515 10.321l1.222 3.613-.843 2.571-.843 2.571-3.357.048-3.357.047.047 3.524.047 3.524 4.181-.012c7.831-.022 9.824-1.469 12.343-8.96.914-2.717 2.003-5.909 5.084-14.895 1.216-3.546 2.39-6.995 2.61-7.666.448-1.369 4.775-14.075 5.84-17.152.38-1.097.691-2.057.691-2.134 0-.076-1.904-.139-4.232-.139h-4.233l-3.245 9.887c-1.785 5.437-3.48 10.749-3.768 11.803-.287 1.054-.808 2.975-1.158 4.268-.349 1.294-.669 2.457-.71 2.584-.222.684-.6-.341-1.663-4.511-1.055-4.139-1.956-7.009-6.665-21.244l-.894-2.7-4.486-.046c-2.467-.026-4.486.013-4.485.087m-239.469 63.506c-.046.12-.063 2.844-.038 6.054l.046 5.835 4.661.046 4.66.046v-6.1-6.1h-4.622c-3.551 0-4.642.05-4.707.219" fill="#382a7f"/><path d="m369.686 71.456c-.527.088-1.56.276-2.297.418-6.154 1.184-10.819 6.404-12.508 13.998-.2.901-.397 1.691-.436 1.755-.63 1.02-.777 13.764-.197 17.077 2.105 12.019 7.664 17.482 17.79 17.482 11.749 0 17.668-7.668 18.316-23.727.578-14.309-4.493-24.57-13.089-26.487-3.013-.672-5.596-.848-7.579-.516m-54.091 2.891c-.065 1.221-.193 3.123-.283 4.224-.182 2.221-.554 7.904-.85 12.98-.106 1.82-.267 3.935-.359 4.699-.091.764-.166 1.877-.166 2.474v1.086l.566.087c.312.048 1.233.171 2.048.273.814.103 2.206.311 3.093.464l1.612.278 1.088-.953c4.905-4.3 12.402-3.47 14.651 1.622.989 2.238 1.085 5.527.232 7.952-2.472 7.024-12.681 7.054-17.254.049-1.128-1.73-.879-1.693-2.577-.381-.828.641-2.26 1.743-3.182 2.45-2.088 1.6-2.01 1.432-1.21 2.602 2.537 3.714 6.222 6.248 10.752 7.396 4.347 1.101 10.673.614 14.199-1.093.591-.287 1.117-.521 1.169-.521.236 0 2.346-1.55 3.189-2.343 7.258-6.827 6.488-20.565-1.436-25.614-7.137-4.548-16.357-2.345-18.811 4.494-.064.179-.244.293-.413.26-.321-.062-.325-.16-.126-3.191.05-.766.162-2.491.249-3.833.17-2.625.478-6.817.631-8.58l.095-1.089h11.048 11.049v-4.007-4.007h-14.442-14.442zm59.229 5.163c4.781 1.736 5.842 5.096 5.754 18.225-.051 7.401-.117 8.207-.898 10.802-2.525 8.397-13.274 8.078-15.462-.458-.744-2.906-1.05-15.447-.486-19.926.763-6.052 3.462-9.01 8.255-9.046 1.368-.01 1.909.066 2.837.403m-333.012 74.76v6.012l9.103-.045 9.102-.045.046-5.967.046-5.967h-9.149-9.148z" fill="#e41822"/><path d="m367.857 71.612c-.344.093-.165.108.523.044.575-.053 1.078-.126 1.118-.162.129-.117-1.103-.028-1.641.118m7.491.001c.883.182 1.596.174.872-.01-.288-.073-.758-.133-1.046-.134-.439 0-.411.023.174.144m-30.674 4.519c0 2.252.025 3.173.055 2.047.031-1.125.031-2.968 0-4.094-.03-1.126-.055-.204-.055 2.047m19.612-3.397c-.24.137-.357.249-.262.249.096 0 .371-.112.61-.249.24-.137.357-.249.261-.249-.095 0-.37.112-.609.249m15.157 0c.239.137.513.249.609.249s-.022-.112-.261-.249c-.24-.137-.514-.249-.61-.249s.022.112.262.249m-63.888.697c.001.479.035.654.075.39.04-.265.039-.657-.002-.871-.041-.215-.074.002-.073.481m47.032.186c-.407.244-.74.485-.74.535 0 .094 1.175-.574 1.472-.836.299-.265.02-.15-.732.301m18.423-.219c0 .041.334.294.741.562.407.269.648.377.536.241-.216-.262-1.277-.929-1.277-.803m-65.763 3.869c-.07 1.303-.089 2.408-.043 2.454s.141-.982.211-2.286.089-2.408.043-2.454-.141.982-.211 2.286m68.812-1.484c.374.383.72.697.768.697s-.219-.314-.594-.697c-.374-.383-.719-.697-.767-.697s.219.314.593.697m-24.227.044-.511.566.566-.512c.528-.477.646-.621.511-.621-.03 0-.284.255-.566.567m-1.752 2.09c-.599 1.018-.638 1.104-.333.741.354-.422.659-.959.545-.959-.046 0-.141.098-.212.218m11.868 1.349c-.217.092.013.111.609.05.527-.054.991-.126 1.031-.16.15-.13-1.306-.032-1.64.11m2.54-.11c.04.034.504.106 1.031.16.596.061.827.042.61-.05-.334-.142-1.791-.24-1.641-.11m14.359.46c.148.287.309.522.357.522s-.034-.235-.183-.522c-.149-.288-.31-.523-.357-.523-.048 0 .034.235.183.523m-71.824 1.219c0 .336.036.473.08.305.043-.168.043-.442 0-.61-.044-.167-.08-.03-.08.305m62.51.437c.332.384.743.894.915 1.133.302.418.302.413.003-.138-.17-.314-.582-.824-.915-1.132l-.605-.561zm9.936-.524c0 .096.112.37.249.61.137.239.249.357.249.261s-.112-.37-.249-.61c-.137-.239-.249-.357-.249-.261m-65.12 1.22c.002.479.036.654.076.389s.039-.657-.003-.871c-.041-.214-.074.003-.073.482m33.419.455c-.107.307-.164.59-.127.627s.156-.184.263-.492.165-.59.127-.628c-.037-.037-.155.185-.263.493m-40.91 1.113c.001.479.035.654.075.389s.039-.657-.002-.871-.074.002-.073.482m73.844.435c0 .144.106.536.235.871.129.336.235.492.235.349 0-.144-.106-.536-.235-.871-.129-.336-.235-.493-.235-.349m-66.529.871c0 .431.034.608.075.392.042-.215.042-.568 0-.784-.041-.215-.075-.039-.075.392m42.038.622c-.064.256-.083.498-.042.539s.127-.134.191-.389c.064-.256.083-.498.042-.539s-.127.134-.191.389m-49.529 1.12c0 .432.034.608.075.392.042-.215.042-.568 0-.784-.041-.215-.075-.039-.075.392m7.182 1.428c-.067.893-.092 1.82-.056 2.058.037.239.125-.459.197-1.55.071-1.092.096-2.018.055-2.059s-.129.657-.196 1.551m32.6-1.057c-.145.726-.004.866.153.152.066-.301.084-.584.039-.628-.044-.045-.13.169-.192.476m25.619.239c.056.479.13.904.166.944.122.137.03-.944-.118-1.379-.1-.294-.115-.152-.048.435m-65.573 1.916c.001.48.035.655.075.39s.039-.657-.002-.871c-.042-.214-.075.002-.073.481m65.848-.174c.001.384.037.52.079.303.041-.217.04-.53-.004-.697-.043-.166-.077.011-.075.394m9.484.349c.053.575.126 1.078.162 1.118.117.129.028-1.104-.117-1.641-.094-.344-.109-.165-.045.523m-58.178.389c.407.036 1.073.036 1.481 0 .407-.037.074-.067-.741-.067-.814 0-1.147.03-.74.067m-1.83.166c.168.044.443.044.61 0 .168-.043.031-.079-.305-.079-.335 0-.472.036-.305.079m4.53 0c.168.044.442.044.61 0 .168-.043.03-.079-.305-.079s-.473.036-.305.079m-7.404.851c-.676.366-.599.493.087.144.657-.334.773-.421.552-.411-.088.004-.376.124-.639.267m11.349.09c.422.187.797.309.835.271.075-.075-1.267-.643-1.473-.623-.07.007.217.166.638.352m51.808.507c0 .431.034.608.076.392.041-.215.041-.568 0-.784-.042-.215-.076-.039-.076.392m-75.918 1.742c-.07 1.256-.089 2.321-.043 2.368.046.046.141-.944.211-2.2.069-1.256.088-2.321.042-2.367s-.141.944-.21 2.199m39.678-1.655c.002.384.037.52.079.303s.04-.53-.004-.697c-.043-.166-.077.011-.075.394m-32.218.784c0 .623.031.878.07.566.038-.311.038-.821 0-1.132-.039-.311-.07-.057-.07.566m3.074.305-.953 1.002 1.002-.952c.931-.885 1.082-1.052.952-1.052-.027 0-.478.451-1.001 1.002m38.759 4.312c0 2.875.024 4.075.053 2.668.029-1.408.029-3.76 0-5.227s-.053-.316-.053 2.559m17.073.087c0 2.923.024 4.118.053 2.657s.029-3.852 0-5.314c-.029-1.461-.053-.265-.053 2.657m-38.927-4.327c.839.841 2.278 2.061 1.742 1.476-.336-.365-.924-.906-1.307-1.201-.383-.296-.579-.419-.435-.275m12.096 4.24c0 2.395.024 3.4.055 2.231.03-1.168.03-3.128 0-4.355s-.055-.271-.055 2.124m36.562-3.397c0 .527.033.742.073.479.04-.264.04-.695 0-.958-.04-.264-.073-.048-.073.479m-68.823 1.132c.001.383.037.52.079.303.041-.217.04-.53-.004-.697-.043-.166-.077.011-.075.394m23.488 1.742c.215.384.466.776.557.871.261.274-.336-.83-.659-1.219-.159-.192-.114-.035.102.348m-30.983.262c0 .335.036.472.079.305.044-.168.044-.443 0-.61-.043-.168-.079-.031-.079.305m7.973-.009c0 .138-.133.189-.348.132-.192-.05-.305-.02-.251.067.053.087.205.158.338.158.276 0 .522-.32.366-.476-.058-.058-.105-.004-.105.119m6.011.808c.787.125 3.758.167 3.459.049-.178-.07-1.107-.122-2.066-.115-.958.006-1.585.036-1.393.066m-14.133 1.9c.016.53.095.701.329.722.197.018.217-.001.054-.053-.143-.045-.288-.363-.329-.722l-.074-.643zm32.438-.26c.064.239.189.553.278.697.112.181.126.128.045-.175-.064-.239-.189-.553-.278-.697-.112-.181-.126-.128-.045.175m-11.25.054c0 .03.255.285.567.566l.566.512-.512-.566c-.477-.528-.621-.646-.621-.512m55.279 1.165c0 .527.033.743.073.479.04-.263.04-.694 0-.958-.04-.263-.073-.048-.073.479m-68.617.392-.512.566.566-.511c.528-.477.647-.621.512-.621-.03 0-.285.255-.566.566m-5.259-.272c.168.044.442.044.61 0 .167-.044.03-.079-.305-.079-.336 0-.473.035-.305.079m1.016.12c.04.036.543.109 1.118.162.687.064.866.049.523-.044-.538-.146-1.771-.235-1.641-.118m36.441 1.764c.002.383.037.519.079.303.042-.217.04-.531-.004-.697-.043-.167-.077.01-.075.394m36.237.174c.002.383.037.519.079.303.042-.217.04-.531-.004-.697-.043-.167-.077.011-.075.394m-42.831 2.874c0 1.486.026 2.093.059 1.351.033-.743.033-1.958 0-2.701-.033-.742-.059-.135-.059 1.35m-9.739.636c0 1.51.049 2.513.11 2.23.145-.678.147-4.062.003-4.573-.062-.22-.113.834-.113 2.343m52.392-2.029c0 .335.036.472.08.305.043-.168.043-.442 0-.61-.044-.168-.08-.031-.08.305m-26.307.522c0 .336.036.473.08.305.044-.167.044-.442 0-.609-.044-.168-.08-.031-.08.304m16.725.349c0 .335.036.472.08.305.044-.168.044-.442 0-.61s-.08-.031-.08.305m-.174 1.219c0 .336.036.473.079.305.044-.167.044-.442 0-.61-.043-.167-.079-.03-.079.305m-25.71.61c.06.383.175.854.256 1.045.093.222.107.094.037-.348-.06-.383-.175-.854-.255-1.045-.093-.221-.107-.094-.038.348m-36.358 2.016-.603.535.653-.468c.577-.415.765-.602.603-.602-.027 0-.321.241-.653.535m46.195-.187c-.003.144.102.497.234.784.308.673.312.36.006-.435-.129-.336-.237-.492-.24-.349m24.563.54c-.107.307-.189.644-.182.749.007.106.125-.115.262-.489.138-.375.22-.713.182-.75-.037-.037-.155.183-.262.49m-9.822 1.026c-.151.385-.237.699-.192.699.117 0 .621-1.243.537-1.327-.039-.039-.194.244-.345.628m-58.494.52c.202.284.457.572.566.639s-.022-.165-.29-.517c-.583-.764-.802-.861-.276-.122m34.947.005c.064.24.189.553.278.697.112.181.125.128.044-.174-.064-.24-.189-.554-.277-.697-.113-.182-.126-.129-.045.174m9.482-.267c0 .182.699 1.312.812 1.312.048 0-.09-.294-.306-.653-.481-.8-.506-.833-.506-.659m-49.833.629-.603.536.561-.37c.497-.328.873-.702.706-.702-.033 0-.332.241-.664.536m31.226.457c-.257.84-.133.965.14.139.115-.348.175-.667.133-.708-.041-.042-.164.214-.273.569m-32.794.761-.603.536.653-.469c.578-.414.766-.602.604-.602-.028 0-.322.241-.654.535m8.584.086c.357.382.906.833 1.219 1.002.55.298.555.298.134-.004-.239-.172-.788-.623-1.219-1.002l-.784-.69zm65.667-.178c-.292.641-.236.778.08.195.147-.272.235-.527.195-.567s-.163.128-.275.372m-21.29.472c.427.455.8.827.828.827.131 0-.008-.156-.777-.878l-.827-.777zm10.809.043c-.423.432-.73.784-.682.784s.433-.352.856-.784c.423-.431.73-.784.682-.784-.047 0-.433.353-.856.784m-42.247.209c-.48.442-.715.72-.523.617.332-.178 1.634-1.443 1.471-1.428-.042.003-.469.368-.948.811m-22.652.231c-.263.291-.279.39-.089.566.183.17.204.167.101-.015-.075-.131 0-.372.176-.566.168-.186.266-.337.218-.337s-.231.158-.406.352m20.561 1.051c-.383.181-.595.332-.471.334.254.005 1.255-.481 1.255-.61 0-.101.051-.12-.784.276m35.372-.174c.101.164 1.294.577 1.39.482.036-.036-.281-.191-.705-.343s-.732-.215-.685-.139m-23.351.513c-.149.287-.231.522-.183.522s.208-.235.357-.522c.149-.288.231-.523.183-.523s-.209.235-.357.523m29.704-.247c-.571.234-.577.243-.087.149.287-.056.597-.174.688-.263.208-.204.148-.193-.601.114m-61.502.764c.202.285.457.572.566.64.109.067-.022-.166-.29-.518-.583-.763-.802-.86-.276-.122m15.641-.046c.217.042.531.04.697-.003.167-.044-.011-.078-.394-.076s-.519.038-.303.079m15.275.865c-.268.352-.399.585-.29.518.223-.138.977-1.157.856-1.157-.043 0-.298.287-.566.639m41.387.406c-.205.287-.333.523-.285.523s.255-.236.459-.523c.205-.288.333-.523.285-.523s-.254.235-.459.523m-70.392.914c.713.737 1.654 1.583 2.09 1.88.685.465.71.472.184.051-.336-.268-1.277-1.114-2.091-1.88l-1.481-1.392zm43.693-.304c.296.383.915 1.049 1.376 1.48.641.601.576.499-.279-.435-1.532-1.674-1.722-1.855-1.097-1.045m-16.251.827-1.039 1.089 1.088-1.04c1.012-.966 1.169-1.138 1.04-1.138-.027 0-.517.49-1.089 1.089m-22.904 2.854c0 .118 1.244.621 1.328.537.038-.038-.245-.193-.629-.344s-.699-.238-.699-.193m43.554-.024c0 .119 1.067.648 1.147.568.038-.038-.205-.199-.539-.359-.334-.159-.608-.253-.608-.209m16.899.262c-.335.184-.547.338-.47.342.185.009 1.167-.502 1.167-.607 0-.114-.01-.11-.697.265m-56.446 1.22c.24.077.593.139.784.139.276 0 .258-.029-.087-.139-.239-.077-.592-.139-.784-.139-.276 0-.257.029.087.139m10.279 0c-.345.11-.363.139-.087.139.192 0 .544-.062.784-.139.345-.11.363-.139.087-.139-.192 0-.544.062-.784.139m32.927 0c.596.191 1.054.191.61 0-.192-.082-.506-.147-.697-.145-.28.005-.263.033.087.145m9.669 0c-.444.191.014.191.61 0 .35-.112.367-.14.087-.145-.192-.002-.505.063-.697.145m-50.044.469c.168.043.442.043.61 0 .168-.044.031-.08-.305-.08-.335 0-.472.036-.305.08m4.704 0c.168.043.442.043.61 0 .168-.044.03-.08-.305-.08s-.472.036-.305.08m38.328 0c.167.043.442.043.61 0 .167-.044.03-.08-.305-.08-.336 0-.473.036-.305.08m4.355 0c.168.043.442.043.61 0 .168-.044.03-.08-.305-.08s-.473.036-.305.08m-322.992 25.968 9.194.047-.048 6.01-.048 6.01 12.805-.045 12.805-.044v-6.011-6.01l-21.951-.002c-12.073-.001-17.814.019-12.757.045" fill="#ea701f"/><path d="m85.627 154.181v6.099l16.464-.044 16.463-.044v-6.011-6.01l-16.463-.045-16.464-.044z" fill="#f1b610"/><path d="m369.686 71.456c-.527.088-1.56.276-2.297.418-6.154 1.184-10.819 6.404-12.508 13.998-.2.901-.397 1.691-.436 1.755-.63 1.02-.777 13.764-.197 17.077 2.105 12.019 7.664 17.482 17.79 17.482 11.749 0 17.668-7.668 18.316-23.727.578-14.309-4.493-24.57-13.089-26.487-3.013-.672-5.596-.848-7.579-.516m-54.091 2.891c-.065 1.221-.193 3.123-.283 4.224-.182 2.221-.554 7.904-.85 12.98-.106 1.82-.267 3.935-.359 4.699-.091.764-.166 1.877-.166 2.474v1.086l.566.087c.312.048 1.233.171 2.048.273.814.103 2.206.311 3.093.464l1.612.278 1.088-.953c4.905-4.3 12.402-3.47 14.651 1.622.989 2.238 1.085 5.527.232 7.952-2.472 7.024-12.681 7.054-17.254.049-1.128-1.73-.879-1.693-2.577-.381-.828.641-2.26 1.743-3.182 2.45-2.088 1.6-2.01 1.432-1.21 2.602 2.537 3.714 6.222 6.248 10.752 7.396 4.347 1.101 10.673.614 14.199-1.093.591-.287 1.117-.521 1.169-.521.236 0 2.346-1.55 3.189-2.343 7.258-6.827 6.488-20.565-1.436-25.614-7.137-4.548-16.357-2.345-18.811 4.494-.064.179-.244.293-.413.26-.321-.062-.325-.16-.126-3.191.05-.766.162-2.491.249-3.833.17-2.625.478-6.817.631-8.58l.095-1.089h11.048 11.049v-4.007-4.007h-14.442-14.442zm59.229 5.163c4.781 1.736 5.842 5.096 5.754 18.225-.051 7.401-.117 8.207-.898 10.802-2.525 8.397-13.274 8.078-15.462-.458-.744-2.906-1.05-15.447-.486-19.926.763-6.052 3.462-9.01 8.255-9.046 1.368-.01 1.909.066 2.837.403m-333.012 74.76v6.012l9.103-.045 9.102-.045.046-5.967.046-5.967h-9.149-9.148z" fill="#e41822"/></g></svg>